<?xml version="1.0" encoding="utf-8"?>
<!-- Generator: Adobe Illustrator 13.0.0, SVG Export Plug-In . SVG Version: 6.00 Build 14948)  -->
<!DOCTYPE svg PUBLIC "-//W3C//DTD SVG 1.0//EN" "http://www.w3.org/TR/2001/REC-SVG-20010904/DTD/svg10.dtd">
<svg version="1.0" id="Layer_1" xmlns="http://www.w3.org/2000/svg" xmlns:xlink="http://www.w3.org/1999/xlink" x="0px" y="0px"
	 width="500px" height="500px" viewBox="0 0 500 500" enable-background="new 0 0 500 500" xml:space="preserve">
<path d="M423.962,172.097c-68.899,76.1-153.535,3.805-153.535,3.805C377.893,296.222,423.962,172.2,423.962,172.097z
	 M257.265,206.651c12.751,10.592,27.354,18.714,43.19,23.447c11.21,3.291,23.448,5.348,33.013,2.878c0,0-19.026-4.422-57.59-38.872
	C252.225,173.229,165.02,86.845,69.793,171.171C69.793,171.171,146.715,114.714,257.265,206.651z M149.389,147.52
	c1.336-0.206,3.291-0.412,5.862-0.412c5.038-0.206,12.443,0.206,20.978,1.852c4.319,0.822,8.947,1.953,13.678,3.497
	c4.833,1.542,9.77,3.393,14.706,5.758c4.936,2.262,10.078,4.937,14.911,7.918c4.936,2.982,9.769,6.273,14.499,9.77l3.497,2.674
	c1.132,0.925,2.264,1.851,3.395,2.777c2.262,1.851,4.421,3.701,6.582,5.45c4.317,3.702,8.637,7.095,12.854,10.489
	c2.159,1.645,4.216,3.291,6.273,4.833c2.057,1.646,4.113,3.084,6.066,4.627c1.954,1.542,3.908,2.88,5.759,4.218
	c1.852,1.438,3.702,2.672,5.45,3.907c3.6,2.469,6.891,4.525,9.873,6.376c1.439,0.925,2.982,1.646,4.217,2.469
	c1.336,0.719,2.57,1.336,3.702,1.953c2.263,1.132,4.112,1.851,5.347,2.364c1.235,0.411,1.954,0.617,1.954,0.617
	s-0.719,0-2.057-0.308c-1.336-0.31-3.291-0.823-5.655-1.646c-1.234-0.411-2.47-0.925-3.908-1.544
	c-1.439-0.615-2.88-1.232-4.525-2.057c-3.187-1.541-6.787-3.392-10.489-5.655c-3.805-2.158-7.814-4.627-11.93-7.506
	c-2.057-1.441-4.216-2.778-6.376-4.321c-2.157-1.542-4.318-3.084-6.477-4.729c-2.161-1.646-4.423-3.291-6.582-5.04
	c-2.263-1.645-4.423-3.394-6.686-5.244c-2.159-1.749-4.422-3.599-6.684-5.348c-1.131-0.926-2.263-1.749-3.291-2.674l-3.394-2.571
	c-4.524-3.394-9.256-6.685-13.985-9.564c-4.731-2.879-9.563-5.656-14.294-8.021c-4.73-2.365-9.461-4.422-14.089-6.17
	c-4.524-1.748-8.945-3.188-13.059-4.318c-4.114-1.131-7.919-1.954-11.416-2.571c-3.394-0.617-6.479-0.925-8.947-1.131
	c-2.467-0.206-4.524-0.308-5.861-0.308c-1.234-0.103-1.954-0.103-1.954-0.103S148.052,147.725,149.389,147.52z M240.914,205.725
	c-95.742-78.67-171.121-24.681-171.121-24.681h0.104v10.078c4.113-1.749,9.151-3.805,15.116-5.656
	c5.965-1.851,12.751-3.702,20.362-5.039c7.61-1.337,15.939-2.365,24.887-2.468c8.844-0.103,18.305,0.514,27.869,2.366
	c9.564,1.851,19.23,4.729,28.692,8.947c9.357,4.216,18.407,9.461,26.738,15.631c2.056,1.542,4.113,3.085,6.169,4.833l2.981,2.467
	c0.927,0.824,1.955,1.646,2.88,2.468c3.805,3.188,7.817,6.169,11.827,8.947c8.124,5.656,16.453,10.695,24.886,14.912
	c4.218,2.056,8.434,4.01,12.649,5.655c4.217,1.748,8.329,3.189,12.444,4.422c4.112,1.234,8.226,2.367,12.134,3.189
	c4.012,0.925,7.815,1.542,11.519,2.159c3.7,0.514,7.301,0.822,10.797,1.028c3.395,0.206,6.686,0.308,9.77,0.308
	c6.171,0,11.519-0.514,15.939-1.028c4.423-0.615,7.816-1.232,10.181-1.85c2.366-0.515,3.498-0.926,3.498-0.926
	s-1.132,0.515-3.395,1.233c-2.263,0.72-5.655,1.852-10.078,2.674c-4.422,0.925-9.77,1.852-16.042,2.263
	c-3.086,0.204-6.479,0.31-9.977,0.31c-3.495,0-7.197-0.207-11.105-0.515c-3.806-0.31-7.815-0.823-11.928-1.542
	c-4.115-0.721-8.331-1.647-12.65-2.88c-4.319-1.132-8.639-2.572-13.06-4.114c-4.422-1.647-8.741-3.497-13.164-5.554
	c-8.74-4.114-17.481-9.152-25.813-14.913c-4.216-2.878-8.329-5.963-12.34-9.151c-1.028-0.824-1.953-1.646-2.981-2.469l-2.983-2.364
	c-1.954-1.646-3.908-3.086-5.862-4.627c-7.919-5.965-16.557-11.107-25.504-15.221c-8.946-4.114-18.098-7.095-27.251-9.05
	c-9.153-1.953-18.202-2.981-26.84-3.084c-8.639-0.103-16.762,0.309-24.27,1.337c-7.506,1.028-14.294,2.365-20.259,3.908
	c-5.965,1.542-11.107,3.084-15.322,4.524c-0.177,0.061-0.341,0.119-0.514,0.179v14.013c0,99.237,80.418,179.656,179.656,179.656
	c99.236,0,179.654-80.419,179.654-179.656v-28.486C419.952,211.896,336.653,284.396,240.914,205.725z M311.871,156.877
	c3.085-48.642,56.869-30.851,56.973-30.851c-68.799-26.121-64.813,15.4-64.813,15.4c-24.373-12.649-33.604,15.451-33.604,15.451
	C291.099,135.796,311.871,156.877,311.871,156.877z M362.877,165.105c-16.555-8.638-22.52,10.797-22.52,10.797
	c14.089-14.294,28.177,0,28.177,0c2.057-33.011,38.563-20.979,38.667-20.979C362.853,138.136,362.877,165.105,362.877,165.105z
	 M228.264,147.52c0,0-46.996-54.504-108.698-26.738c0,0-25.504,11.312-49.773,42.163C69.793,162.945,138.282,93.427,228.264,147.52z
	"/>
</svg>
